<svg width="137" height="32" viewBox="0 0 137 32" fill="none" xmlns="http://www.w3.org/2000/svg">
<path d="M17.964 24.536H8.532L7.02 29H0.576L9.72 3.728H16.848L25.992 29H19.476L17.964 24.536ZM16.38 19.784L13.248 10.532L10.152 19.784H16.38ZM43.535 8.696C45.887 8.696 47.759 9.464 49.151 11C50.567 12.512 51.275 14.6 51.275 17.264V29H45.155V18.092C45.155 16.748 44.807 15.704 44.111 14.96C43.415 14.216 42.479 13.844 41.303 13.844C40.127 13.844 39.191 14.216 38.495 14.96C37.799 15.704 37.451 16.748 37.451 18.092V29H31.295V8.912H37.451V11.576C38.075 10.688 38.915 9.992 39.971 9.488C41.027 8.96 42.215 8.696 43.535 8.696ZM61.1688 6.824C60.0888 6.824 59.2008 6.512 58.5048 5.888C57.8328 5.24 57.4968 4.448 57.4968 3.512C57.4968 2.552 57.8328 1.76 58.5048 1.136C59.2008 0.487998 60.0888 0.163998 61.1688 0.163998C62.2248 0.163998 63.0888 0.487998 63.7608 1.136C64.4568 1.76 64.8048 2.552 64.8048 3.512C64.8048 4.448 64.4568 5.24 63.7608 5.888C63.0888 6.512 62.2248 6.824 61.1688 6.824ZM64.2288 8.912V29H58.0728V8.912H64.2288Z" fill="#25252A"/>
<path d="M77.366 11.756C77.942 10.82 78.77 10.064 79.85 9.488C80.93 8.912 82.166 8.624 83.558 8.624C85.214 8.624 86.714 9.044 88.058 9.884C89.402 10.724 90.458 11.924 91.226 13.484C92.018 15.044 92.414 16.856 92.414 18.92C92.414 20.984 92.018 22.808 91.226 24.392C90.458 25.952 89.402 27.164 88.058 28.028C86.714 28.868 85.214 29.288 83.558 29.288C82.142 29.288 80.906 29.012 79.85 28.46C78.794 27.884 77.966 27.128 77.366 26.192V29H71.21V2.36H77.366V11.756ZM86.15 18.92C86.15 17.384 85.718 16.184 84.854 15.32C84.014 14.432 82.97 13.988 81.722 13.988C80.498 13.988 79.454 14.432 78.59 15.32C77.75 16.208 77.33 17.42 77.33 18.956C77.33 20.492 77.75 21.704 78.59 22.592C79.454 23.48 80.498 23.924 81.722 23.924C82.946 23.924 83.99 23.48 84.854 22.592C85.718 21.68 86.15 20.456 86.15 18.92ZM104.32 12.26C105.04 11.156 105.94 10.292 107.02 9.668C108.1 9.02 109.3 8.696 110.62 8.696V15.212H108.928C107.392 15.212 106.24 15.548 105.472 16.22C104.704 16.868 104.32 18.02 104.32 19.676V29H98.1636V8.912H104.32V12.26ZM125.226 29.288C123.258 29.288 121.482 28.868 119.898 28.028C118.338 27.188 117.102 25.988 116.19 24.428C115.302 22.868 114.858 21.044 114.858 18.956C114.858 16.892 115.314 15.08 116.226 13.52C117.138 11.936 118.386 10.724 119.97 9.884C121.554 9.044 123.33 8.624 125.298 8.624C127.266 8.624 129.042 9.044 130.626 9.884C132.21 10.724 133.458 11.936 134.37 13.52C135.282 15.08 135.738 16.892 135.738 18.956C135.738 21.02 135.27 22.844 134.334 24.428C133.422 25.988 132.162 27.188 130.554 28.028C128.97 28.868 127.194 29.288 125.226 29.288ZM125.226 23.96C126.402 23.96 127.398 23.528 128.214 22.664C129.054 21.8 129.474 20.564 129.474 18.956C129.474 17.348 129.066 16.112 128.25 15.248C127.458 14.384 126.474 13.952 125.298 13.952C124.098 13.952 123.102 14.384 122.31 15.248C121.518 16.088 121.122 17.324 121.122 18.956C121.122 20.564 121.506 21.8 122.274 22.664C123.066 23.528 124.05 23.96 125.226 23.96Z" fill="#3B71CA"/>
</svg>
